<?xml version="1.0" encoding="UTF-8" standalone="no"?>
<!-- Created with Inkscape (http://www.inkscape.org/) -->

<svg
   xmlns:dc="http://purl.org/dc/elements/1.1/"
   xmlns:cc="http://creativecommons.org/ns#"
   xmlns:rdf="http://www.w3.org/1999/02/22-rdf-syntax-ns#"
   xmlns:svg="http://www.w3.org/2000/svg"
   xmlns="http://www.w3.org/2000/svg"
   xmlns:sodipodi="http://sodipodi.sourceforge.net/DTD/sodipodi-0.dtd"
   xmlns:inkscape="http://www.inkscape.org/namespaces/inkscape"
   id="svg2"
   version="1.1"
   inkscape:version="0.48.4 r9939"
   width="302.96124"
   height="432.84"
   xml:space="preserve"
   sodipodi:docname="polarization_will_review.pdf"><metadata
     id="metadata8"><rdf:RDF><cc:Work
         rdf:about=""><dc:format>image/svg+xml</dc:format><dc:type
           rdf:resource="http://purl.org/dc/dcmitype/StillImage" /><dc:title></dc:title></cc:Work></rdf:RDF></metadata><defs
     id="defs6"><clipPath
       clipPathUnits="userSpaceOnUse"
       id="clipPath38"><path
         d="M 0,0 491,0 491,723 0,723 0,0 z"
         id="path40"
         inkscape:connector-curvature="0" /></clipPath><clipPath
       clipPathUnits="userSpaceOnUse"
       id="clipPath56"><path
         d="m 2149.74,5565.05 0,239.13 160.08,0 0,-239.13 -160.08,0 z"
         id="path58"
         inkscape:connector-curvature="0" /></clipPath><clipPath
       clipPathUnits="userSpaceOnUse"
       id="clipPath70"><path
         d="m 1119.74,6660.6 0,239.13 160.08,0 0,-239.13 -160.08,0 z"
         id="path72"
         inkscape:connector-curvature="0" /></clipPath><clipPath
       clipPathUnits="userSpaceOnUse"
       id="clipPath92"><path
         d="m 4679.48,5564.79 0,239.14 160.08,0 0,-239.14 -160.08,0 z"
         id="path94"
         inkscape:connector-curvature="0" /></clipPath><clipPath
       clipPathUnits="userSpaceOnUse"
       id="clipPath106"><path
         d="m 3649.48,6660.34 0,239.13 160.08,0 0,-239.13 -160.08,0 z"
         id="path108"
         inkscape:connector-curvature="0" /></clipPath><clipPath
       clipPathUnits="userSpaceOnUse"
       id="clipPath128"><path
         d="m 2150.28,939.82 0,239.13 150,0 0,-239.13 -150,0 z"
         id="path130"
         inkscape:connector-curvature="0" /></clipPath><clipPath
       clipPathUnits="userSpaceOnUse"
       id="clipPath142"><path
         d="m 1120.28,2035.37 0,239.13 160.08,0 0,-239.13 -160.08,0 z"
         id="path144"
         inkscape:connector-curvature="0" /></clipPath><clipPath
       clipPathUnits="userSpaceOnUse"
       id="clipPath164"><path
         d="m 4700.28,989.82 0,239.13 150,0 0,-239.13 -150,0 z"
         id="path166"
         inkscape:connector-curvature="0" /></clipPath><clipPath
       clipPathUnits="userSpaceOnUse"
       id="clipPath178"><path
         d="m 3670.28,2085.34 0,239.13 160.08,0 0,-239.13 -160.08,0 z"
         id="path180"
         inkscape:connector-curvature="0" /></clipPath><clipPath
       clipPathUnits="userSpaceOnUse"
       id="clipPath200"><path
         d="m 2149.48,3254.79 0,239.14 160.08,0 0,-239.14 -160.08,0 z"
         id="path202"
         inkscape:connector-curvature="0" /></clipPath><clipPath
       clipPathUnits="userSpaceOnUse"
       id="clipPath214"><path
         d="m 1119.48,4350.34 0,239.13 160.08,0 0,-239.13 -160.08,0 z"
         id="path216"
         inkscape:connector-curvature="0" /></clipPath><clipPath
       clipPathUnits="userSpaceOnUse"
       id="clipPath236"><path
         d="m 4679.48,3284.82 0,249.13 170,0 0,-249.13 -170,0 z"
         id="path238"
         inkscape:connector-curvature="0" /></clipPath><clipPath
       clipPathUnits="userSpaceOnUse"
       id="clipPath250"><path
         d="m 3659.48,4390.34 0,239.13 160.08,0 0,-239.13 -160.08,0 z"
         id="path252"
         inkscape:connector-curvature="0" /></clipPath><clipPath
       clipPathUnits="userSpaceOnUse"
       id="clipPath294"><path
         d="m 2774.74,4689.74 0,249.13 309.86,0 0,-249.13 -309.86,0 z"
         id="path296"
         inkscape:connector-curvature="0" /></clipPath><clipPath
       clipPathUnits="userSpaceOnUse"
       id="clipPath308"><path
         d="m 2774.74,2349.74 0,249.13 309.86,0 0,-249.13 -309.86,0 z"
         id="path310"
         inkscape:connector-curvature="0" /></clipPath><clipPath
       clipPathUnits="userSpaceOnUse"
       id="clipPath322"><path
         d="m 2774.74,9.74219 0,249.12881 259.82,0 0,-249.12881 -259.82,0 z"
         id="path324"
         inkscape:connector-curvature="0" /></clipPath><clipPath
       clipPathUnits="userSpaceOnUse"
       id="clipPath336"><path
         d="m 254.742,9.74219 0,249.12881 299.957,0 0,-249.12881 -299.957,0 z"
         id="path338"
         inkscape:connector-curvature="0" /></clipPath><clipPath
       clipPathUnits="userSpaceOnUse"
       id="clipPath350"><path
         d="m 254.742,2349.74 0,249.13 299.957,0 0,-249.13 -299.957,0 z"
         id="path352"
         inkscape:connector-curvature="0" /></clipPath><clipPath
       clipPathUnits="userSpaceOnUse"
       id="clipPath364"><path
         d="m 254.742,4689.74 0,249.13 299.957,0 0,-249.13 -299.957,0 z"
         id="path366"
         inkscape:connector-curvature="0" /></clipPath><clipPath
       clipPathUnits="userSpaceOnUse"
       id="clipPath378"><path
         d="m 0,6872 0,358 4910,0 0,-358 -4910,0 z"
         id="path380"
         inkscape:connector-curvature="0" /></clipPath></defs><sodipodi:namedview
     pagecolor="#ffffff"
     bordercolor="#666666"
     borderopacity="1"
     objecttolerance="10"
     gridtolerance="10"
     guidetolerance="10"
     inkscape:pageopacity="0"
     inkscape:pageshadow="2"
     inkscape:window-width="1360"
     inkscape:window-height="713"
     id="namedview4"
     showgrid="false"
     fit-margin-top="0"
     fit-margin-left="0"
     fit-margin-right="0"
     fit-margin-bottom="0"
     inkscape:zoom="0.89702926"
     inkscape:cx="185.32247"
     inkscape:cy="172.4954"
     inkscape:window-x="-2"
     inkscape:window-y="-3"
     inkscape:window-maximized="1"
     inkscape:current-layer="g32" /><g
     id="g10"
     inkscape:groupmode="layer"
     inkscape:label="polarization"
     transform="matrix(1.25,0,0,-1.25,-14.231249,-61.27383)"><g
       id="g12"
       transform="translate(0,3.587)"><text
         transform="scale(1,-1)"
         id="text14"><tspan
           style="font-size:9.9630003px;font-variant:normal;font-weight:normal;writing-mode:lr-tb;fill:#000000;fill-opacity:1;fill-rule:nonzero;stroke:none;font-family:CMR10;-inkscape-font-specification:CMR10"
           x="0 4.9815001 355.15399 362.34729 365.117 367.88672 373.69513 378.67664 382.58215 391.43924 400.56537 406.65274 416.89471 419.66443 422.43414"
           y="0"
           sodipodi:role="line"
           id="tspan16">70ClifordM.Will</tspan></text>
<g
         id="g18"
         transform="translate(0,-4.085)"><g
           id="g20"><path
             d="m 0,0.249 425.197,0"
             style="fill:none;stroke:#000000;stroke-width:0.498;stroke-linecap:butt;stroke-linejoin:miter;stroke-miterlimit:10;stroke-opacity:1;stroke-dasharray:none"
             id="path22"
             inkscape:connector-curvature="0" /></g><g
           id="g24"
           transform="translate(425.197,0.498)"><g
             id="g26"
             transform="translate(-425.197,-106.253)"><g
               id="g28"
               transform="translate(89.849,-361.5)"><g
                 id="g30"
                 transform="scale(0.5,0.5)"><g
                   id="g32"><g
                     id="g34"
                     transform="translate(-158.74622,147.67689)"><g
                       id="g36"
                       clip-path="url(#clipPath38)"><g
                         id="g42"
                         transform="scale(0.1,0.1)"><path
                           d="m 1989.48,5669.74 c 0,320.18 -353.58,579.74 -789.74,579.74 C 763.578,6249.48 410,5989.92 410,5669.74 410,5349.56 763.578,5090 1199.74,5090 c 436.16,0 789.74,259.56 789.74,579.74 z"
                           style="fill:none;stroke:#ff0000;stroke-width:30;stroke-linecap:butt;stroke-linejoin:round;stroke-miterlimit:10;stroke-opacity:1;stroke-dasharray:40;stroke-dashoffset:0"
                           id="path44"
                           inkscape:connector-curvature="0" /><path
                           d="M 1229.93,6448.96 C 909.852,6457.24 641.223,6110.5 629.934,5674.49 618.645,5238.47 868.961,4878.29 1189.04,4870 c 320.07,-8.28 588.7,338.46 599.99,774.47 11.29,436.02 -239.03,796.2 -559.1,804.49 z"
                           style="fill:none;stroke:#ff0000;stroke-width:30;stroke-linecap:butt;stroke-linejoin:round;stroke-miterlimit:10;stroke-opacity:1;stroke-dasharray:none"
                           id="path46"
                           inkscape:connector-curvature="0" /><path
                           d="m 1199.74,6659.74 0,-2030"
                           style="fill:none;stroke:#000000;stroke-width:10;stroke-linecap:butt;stroke-linejoin:round;stroke-miterlimit:10;stroke-opacity:1;stroke-dasharray:none"
                           id="path48"
                           inkscape:connector-curvature="0" /><path
                           d="m 309.742,5659.74 1839.998,0"
                           style="fill:none;stroke:#000000;stroke-width:10;stroke-linecap:butt;stroke-linejoin:round;stroke-miterlimit:10;stroke-opacity:1;stroke-dasharray:none"
                           id="path50"
                           inkscape:connector-curvature="0" /><g
                           id="g52"><g
                             id="g54"
                             clip-path="url(#clipPath56)"><g
                               id="g60"
                               transform="scale(10,10)"><text
                                 transform="matrix(1,0,0,-1,216.974,562.418)"
                                 id="text62"><tspan
                                   style="font-size:18px;font-variant:normal;font-weight:bold;writing-mode:lr-tb;fill:#000000;fill-opacity:1;fill-rule:nonzero;stroke:none;font-family:Helvetica;-inkscape-font-specification:Helvetica-Bold"
                                   x="0"
                                   y="0"
                                   id="tspan64">x</tspan></text>
</g></g></g><g
                           id="g66"><g
                             id="g68"
                             clip-path="url(#clipPath70)"><g
                               id="g74"
                               transform="scale(10,10)"><text
                                 transform="matrix(1,0,0,-1,113.974,671.973)"
                                 id="text76"><tspan
                                   style="font-size:18px;font-variant:normal;font-weight:bold;writing-mode:lr-tb;fill:#000000;fill-opacity:1;fill-rule:nonzero;stroke:none;font-family:Helvetica;-inkscape-font-specification:Helvetica-Bold"
                                   x="0"
                                   y="0"
                                   id="tspan78">y</tspan></text>
</g></g></g><path
                           d="m 4254.37,5079.4 c 239.23,212.8 198.17,649.5 -91.71,975.39 -289.88,325.89 -718.82,417.57 -958.05,204.77 -239.23,-212.8 -198.17,-649.5 91.71,-975.39 289.88,-325.89 718.82,-417.56 958.05,-204.77 z"
                           style="fill:none;stroke:#ff0000;stroke-width:30;stroke-linecap:butt;stroke-linejoin:round;stroke-miterlimit:10;stroke-opacity:1;stroke-dasharray:40;stroke-dashoffset:0"
                           id="path80"
                           inkscape:connector-curvature="0" /><path
                           d="m 4251.69,6260.12 c -243.62,207.76 -670.55,107.15 -953.57,-224.71 -283.02,-331.86 -314.97,-769.32 -71.35,-977.09 243.62,-207.76 670.55,-107.16 953.57,224.71 283.02,331.86 314.96,769.33 71.35,977.09 z"
                           style="fill:none;stroke:#ff0000;stroke-width:30;stroke-linecap:butt;stroke-linejoin:round;stroke-miterlimit:10;stroke-opacity:1;stroke-dasharray:none"
                           id="path82"
                           inkscape:connector-curvature="0" /><path
                           d="m 3729.48,6659.48 0,-2030"
                           style="fill:none;stroke:#000000;stroke-width:10;stroke-linecap:butt;stroke-linejoin:round;stroke-miterlimit:10;stroke-opacity:1;stroke-dasharray:none"
                           id="path84"
                           inkscape:connector-curvature="0" /><path
                           d="m 2839.48,5659.48 1840,0"
                           style="fill:none;stroke:#000000;stroke-width:10;stroke-linecap:butt;stroke-linejoin:round;stroke-miterlimit:10;stroke-opacity:1;stroke-dasharray:none"
                           id="path86"
                           inkscape:connector-curvature="0" /><g
                           id="g88"><g
                             id="g90"
                             clip-path="url(#clipPath92)"><g
                               id="g96"
                               transform="scale(10,10)"><text
                                 transform="matrix(1,0,0,-1,469.948,562.392)"
                                 id="text98"><tspan
                                   style="font-size:18px;font-variant:normal;font-weight:bold;writing-mode:lr-tb;fill:#000000;fill-opacity:1;fill-rule:nonzero;stroke:none;font-family:Helvetica;-inkscape-font-specification:Helvetica-Bold"
                                   x="0"
                                   y="0"
                                   id="tspan100">x</tspan></text>
</g></g></g><g
                           id="g102"><g
                             id="g104"
                             clip-path="url(#clipPath106)"><g
                               id="g110"
                               transform="scale(10,10)"><text
                                 transform="matrix(1,0,0,-1,366.948,671.947)"
                                 id="text112"><tspan
                                   style="font-size:18px;font-variant:normal;font-weight:bold;writing-mode:lr-tb;fill:#000000;fill-opacity:1;fill-rule:nonzero;stroke:none;font-family:Helvetica;-inkscape-font-specification:Helvetica-Bold"
                                   x="0"
                                   y="0"
                                   id="tspan114">y</tspan></text>
</g></g></g><path
                           d="m 1725.16,454.402 c 239.23,212.801 198.17,649.498 -91.71,975.388 -289.88,325.89 -718.821,417.57 -958.052,204.77 C 436.168,1421.76 477.23,985.059 767.109,659.168 1056.99,333.281 1485.93,241.605 1725.16,454.402 z"
                           style="fill:none;stroke:#1f8f1f;stroke-width:30;stroke-linecap:butt;stroke-linejoin:round;stroke-miterlimit:10;stroke-opacity:1;stroke-dasharray:40;stroke-dashoffset:0"
                           id="path116"
                           inkscape:connector-curvature="0" /><path
                           d="M 1722.48,1635.12 C 1478.86,1842.88 1051.93,1742.27 768.906,1410.41 485.887,1078.55 453.945,641.086 697.562,433.324 941.18,225.562 1368.11,326.164 1651.13,658.027 c 283.02,331.864 314.97,769.333 71.35,977.093 z"
                           style="fill:none;stroke:#1f8f1f;stroke-width:30;stroke-linecap:butt;stroke-linejoin:round;stroke-miterlimit:10;stroke-opacity:1;stroke-dasharray:none"
                           id="path118"
                           inkscape:connector-curvature="0" /><path
                           d="m 1200.28,2034.48 0,-2029.99953"
                           style="fill:none;stroke:#000000;stroke-width:10;stroke-linecap:butt;stroke-linejoin:round;stroke-miterlimit:10;stroke-opacity:1;stroke-dasharray:none"
                           id="path120"
                           inkscape:connector-curvature="0" /><path
                           d="m 310.281,1034.48 1839.999,0"
                           style="fill:none;stroke:#000000;stroke-width:10;stroke-linecap:butt;stroke-linejoin:round;stroke-miterlimit:10;stroke-opacity:1;stroke-dasharray:none"
                           id="path122"
                           inkscape:connector-curvature="0" /><g
                           id="g124"><g
                             id="g126"
                             clip-path="url(#clipPath128)"><g
                               id="g132"
                               transform="scale(10,10)"><text
                                 transform="matrix(1,0,0,-1,217.028,99.8949)"
                                 id="text134"><tspan
                                   style="font-size:18px;font-variant:normal;font-weight:bold;writing-mode:lr-tb;fill:#000000;fill-opacity:1;fill-rule:nonzero;stroke:none;font-family:Helvetica;-inkscape-font-specification:Helvetica-Bold"
                                   x="0"
                                   y="0"
                                   id="tspan136">z</tspan></text>
</g></g></g><g
                           id="g138"><g
                             id="g140"
                             clip-path="url(#clipPath142)"><g
                               id="g146"
                               transform="scale(10,10)"><text
                                 transform="matrix(1,0,0,-1,114.028,209.45)"
                                 id="text148"><tspan
                                   style="font-size:18px;font-variant:normal;font-weight:bold;writing-mode:lr-tb;fill:#000000;fill-opacity:1;fill-rule:nonzero;stroke:none;font-family:Helvetica;-inkscape-font-specification:Helvetica-Bold"
                                   x="0"
                                   y="0"
                                   id="tspan150">x</tspan></text>
</g></g></g><path
                           d="m 4275.16,504.402 c 239.23,212.801 198.17,649.498 -91.71,975.388 -289.88,325.89 -718.82,417.57 -958.05,204.77 -239.23,-212.8 -198.17,-649.5 91.71,-975.392 289.88,-325.887 718.82,-417.563 958.05,-204.766 z"
                           style="fill:none;stroke:#1f8f1f;stroke-width:30;stroke-linecap:butt;stroke-linejoin:round;stroke-miterlimit:10;stroke-opacity:1;stroke-dasharray:40;stroke-dashoffset:0"
                           id="path152"
                           inkscape:connector-curvature="0" /><path
                           d="m 4272.48,1685.12 c -243.62,207.76 -670.55,107.15 -953.57,-224.71 -283.02,-331.86 -314.96,-769.324 -71.35,-977.086 243.62,-207.762 670.55,-107.16 953.57,224.703 283.02,331.863 314.97,769.333 71.35,977.093 z"
                           style="fill:none;stroke:#1f8f1f;stroke-width:30;stroke-linecap:butt;stroke-linejoin:round;stroke-miterlimit:10;stroke-opacity:1;stroke-dasharray:none"
                           id="path154"
                           inkscape:connector-curvature="0" /><path
                           d="m 3750.28,2084.48 0,-2029.9995"
                           style="fill:none;stroke:#000000;stroke-width:10;stroke-linecap:butt;stroke-linejoin:round;stroke-miterlimit:10;stroke-opacity:1;stroke-dasharray:none"
                           id="path156"
                           inkscape:connector-curvature="0" /><path
                           d="m 2860.28,1084.48 1840,0"
                           style="fill:none;stroke:#000000;stroke-width:10;stroke-linecap:butt;stroke-linejoin:round;stroke-miterlimit:10;stroke-opacity:1;stroke-dasharray:none"
                           id="path158"
                           inkscape:connector-curvature="0" /><g
                           id="g160"><g
                             id="g162"
                             clip-path="url(#clipPath164)"><g
                               id="g168"
                               transform="scale(10,10)"><text
                                 transform="matrix(1,0,0,-1,472.028,104.895)"
                                 id="text170"><tspan
                                   style="font-size:18px;font-variant:normal;font-weight:bold;writing-mode:lr-tb;fill:#000000;fill-opacity:1;fill-rule:nonzero;stroke:none;font-family:Helvetica;-inkscape-font-specification:Helvetica-Bold"
                                   x="0"
                                   y="0"
                                   id="tspan172">z</tspan></text>
</g></g></g><g
                           id="g174"><g
                             id="g176"
                             clip-path="url(#clipPath178)"><g
                               id="g182"
                               transform="scale(10,10)"><text
                                 transform="matrix(1,0,0,-1,369.028,214.447)"
                                 id="text184"><tspan
                                   style="font-size:18px;font-variant:normal;font-weight:bold;writing-mode:lr-tb;fill:#000000;fill-opacity:1;fill-rule:nonzero;stroke:none;font-family:Helvetica;-inkscape-font-specification:Helvetica-Bold"
                                   x="0"
                                   y="0"
                                   id="tspan186">y</tspan></text>
</g></g></g><path
                           d="m 1989.22,3369.48 c 0,436.16 -353.58,789.74 -789.74,789.74 -436.16,0 -789.742,-353.58 -789.742,-789.74 0,-436.16 353.582,-789.74 789.742,-789.74 436.16,0 789.74,353.58 789.74,789.74 z"
                           style="fill:none;stroke:#0000ff;stroke-width:30;stroke-linecap:butt;stroke-linejoin:round;stroke-miterlimit:10;stroke-opacity:1;stroke-dasharray:40;stroke-dashoffset:0"
                           id="path188"
                           inkscape:connector-curvature="0" /><path
                           d="m 1229.66,3948.73 c -320.07,6.19 -588.699,-252.73 -599.988,-578.3 -11.289,-325.58 239.027,-594.54 559.098,-600.72 320.08,-6.19 588.71,252.72 600,578.3 11.28,325.58 -239.03,594.54 -559.11,600.72 z"
                           style="fill:none;stroke:#0000ff;stroke-width:30;stroke-linecap:butt;stroke-linejoin:round;stroke-miterlimit:10;stroke-opacity:1;stroke-dasharray:none"
                           id="path190"
                           inkscape:connector-curvature="0" /><path
                           d="m 1199.48,4349.48 0,-2030"
                           style="fill:none;stroke:#000000;stroke-width:10;stroke-linecap:butt;stroke-linejoin:round;stroke-miterlimit:10;stroke-opacity:1;stroke-dasharray:none"
                           id="path192"
                           inkscape:connector-curvature="0" /><path
                           d="m 309.484,3349.48 1839.996,0"
                           style="fill:none;stroke:#000000;stroke-width:10;stroke-linecap:butt;stroke-linejoin:round;stroke-miterlimit:10;stroke-opacity:1;stroke-dasharray:none"
                           id="path194"
                           inkscape:connector-curvature="0" /><g
                           id="g196"><g
                             id="g198"
                             clip-path="url(#clipPath200)"><g
                               id="g204"
                               transform="scale(10,10)"><text
                                 transform="matrix(1,0,0,-1,216.948,331.392)"
                                 id="text206"><tspan
                                   style="font-size:18px;font-variant:normal;font-weight:bold;writing-mode:lr-tb;fill:#000000;fill-opacity:1;fill-rule:nonzero;stroke:none;font-family:Helvetica;-inkscape-font-specification:Helvetica-Bold"
                                   x="0"
                                   y="0"
                                   id="tspan208">x</tspan></text>
</g></g></g><g
                           id="g210"><g
                             id="g212"
                             clip-path="url(#clipPath214)"><g
                               id="g218"
                               transform="scale(10,10)"><text
                                 transform="matrix(1,0,0,-1,113.948,440.947)"
                                 id="text220"><tspan
                                   style="font-size:18px;font-variant:normal;font-weight:bold;writing-mode:lr-tb;fill:#000000;fill-opacity:1;fill-rule:nonzero;stroke:none;font-family:Helvetica;-inkscape-font-specification:Helvetica-Bold"
                                   x="0"
                                   y="0"
                                   id="tspan222">y</tspan></text>
</g></g></g><path
                           d="m 4529.22,3399.48 c 0,320.18 -353.58,579.74 -789.74,579.74 -436.16,0 -789.74,-259.56 -789.74,-579.74 0,-320.18 353.58,-579.74 789.74,-579.74 436.16,0 789.74,259.56 789.74,579.74 z"
                           style="fill:none;stroke:#1f8f1f;stroke-width:30;stroke-linecap:butt;stroke-linejoin:round;stroke-miterlimit:10;stroke-opacity:1;stroke-dasharray:40;stroke-dashoffset:0"
                           id="path224"
                           inkscape:connector-curvature="0" /><path
                           d="m 3716.03,3968.54 c -275.68,-13.13 -488.77,-285.38 -475.96,-608.09 12.8,-322.7 246.67,-573.67 522.34,-560.55 275.68,13.13 488.77,285.38 475.97,608.08 -12.81,322.72 -246.68,573.68 -522.35,560.56 z"
                           style="fill:none;stroke:#1f8f1f;stroke-width:30;stroke-linecap:butt;stroke-linejoin:round;stroke-miterlimit:10;stroke-opacity:1;stroke-dasharray:none"
                           id="path226"
                           inkscape:connector-curvature="0" /><path
                           d="m 3739.48,4379.48 0,-2030"
                           style="fill:none;stroke:#000000;stroke-width:10;stroke-linecap:butt;stroke-linejoin:round;stroke-miterlimit:10;stroke-opacity:1;stroke-dasharray:none"
                           id="path228"
                           inkscape:connector-curvature="0" /><path
                           d="m 2849.48,3389.48 1840,0"
                           style="fill:none;stroke:#000000;stroke-width:10;stroke-linecap:butt;stroke-linejoin:round;stroke-miterlimit:10;stroke-opacity:1;stroke-dasharray:none"
                           id="path230"
                           inkscape:connector-curvature="0" /><g
                           id="g232"><g
                             id="g234"
                             clip-path="url(#clipPath236)"><g
                               id="g240"
                               transform="scale(10,10)"><text
                                 transform="matrix(1,0,0,-1,470.948,335.395)"
                                 id="text242"><tspan
                                   style="font-size:18px;font-variant:normal;font-weight:bold;writing-mode:lr-tb;fill:#000000;fill-opacity:1;fill-rule:nonzero;stroke:none;font-family:Helvetica;-inkscape-font-specification:Helvetica-Bold"
                                   x="0"
                                   y="0"
                                   id="tspan244">z</tspan></text>
</g></g></g><g
                           id="g246"><g
                             id="g248"
                             clip-path="url(#clipPath250)"><g
                               id="g254"
                               transform="scale(10,10)"><text
                                 transform="matrix(1,0,0,-1,367.948,444.947)"
                                 id="text256"><tspan
                                   style="font-size:18px;font-variant:normal;font-weight:bold;writing-mode:lr-tb;fill:#000000;fill-opacity:1;fill-rule:nonzero;stroke:none;font-family:Helvetica;-inkscape-font-specification:Helvetica-Bold"
                                   x="0"
                                   y="0"
                                   id="tspan258">y</tspan></text>
</g></g></g><path
                           d="m 2129.74,1909.74 -260,-65 0,130"
                           style="fill:#000000;fill-opacity:1;fill-rule:nonzero;stroke:none"
                           id="path260"
                           inkscape:connector-curvature="0" /><path
                           d="m 1569.74,1909.74 370,0"
                           style="fill:none;stroke:#000000;stroke-width:30;stroke-linecap:butt;stroke-linejoin:round;stroke-miterlimit:10;stroke-opacity:1;stroke-dasharray:none"
                           id="path262"
                           inkscape:connector-curvature="0" /><path
                           d="m 4739.74,1939.74 -260,-65 0,130"
                           style="fill:#000000;fill-opacity:1;fill-rule:nonzero;stroke:none"
                           id="path264"
                           inkscape:connector-curvature="0" /><path
                           d="m 4179.74,1939.74 370,0"
                           style="fill:none;stroke:#000000;stroke-width:30;stroke-linecap:butt;stroke-linejoin:round;stroke-miterlimit:10;stroke-opacity:1;stroke-dasharray:none"
                           id="path266"
                           inkscape:connector-curvature="0" /><path
                           d="m 4689.74,4189.74 -260,-65 0,130"
                           style="fill:#000000;fill-opacity:1;fill-rule:nonzero;stroke:none"
                           id="path268"
                           inkscape:connector-curvature="0" /><path
                           d="m 4129.74,4189.74 370,0"
                           style="fill:none;stroke:#000000;stroke-width:30;stroke-linecap:butt;stroke-linejoin:round;stroke-miterlimit:10;stroke-opacity:1;stroke-dasharray:none"
                           id="path270"
                           inkscape:connector-curvature="0" /><path
                           d="m 1785.18,4319.74 c 0,47.19 -38.26,85.44 -85.44,85.44 -47.19,0 -85.44,-38.25 -85.44,-85.44 0,-47.18 38.25,-85.44 85.44,-85.44 47.18,0 85.44,38.26 85.44,85.44 z"
                           style="fill:none;stroke:#000000;stroke-width:30;stroke-linecap:butt;stroke-linejoin:round;stroke-miterlimit:10;stroke-opacity:1;stroke-dasharray:none"
                           id="path272"
                           inkscape:connector-curvature="0" /><path
                           d="m 1693.16,4310.34 c 5.19,1.89 7.86,7.63 5.98,12.82 -1.89,5.19 -7.63,7.86 -12.82,5.98 -5.19,-1.89 -7.86,-7.63 -5.98,-12.82 1.89,-5.19 7.63,-7.86 12.82,-5.98"
                           style="fill:#000000;fill-opacity:1;fill-rule:nonzero;stroke:none"
                           id="path274"
                           inkscape:connector-curvature="0" /><path
                           d="m 1693.16,4310.34 c 5.19,1.89 7.86,7.63 5.98,12.82 -1.89,5.19 -7.63,7.86 -12.82,5.98 -5.19,-1.89 -7.86,-7.63 -5.98,-12.82 1.89,-5.19 7.63,-7.86 12.82,-5.98 z"
                           style="fill:none;stroke:#000000;stroke-width:30;stroke-linecap:butt;stroke-linejoin:round;stroke-miterlimit:10;stroke-opacity:1;stroke-dasharray:none"
                           id="path276"
                           inkscape:connector-curvature="0" /><path
                           d="m 1780.62,6575.18 c 0,47.18 -38.26,85.44 -85.44,85.44 -47.18,0 -85.44,-38.26 -85.44,-85.44 0,-47.18 38.26,-85.44 85.44,-85.44 47.18,0 85.44,38.26 85.44,85.44 z"
                           style="fill:none;stroke:#000000;stroke-width:30;stroke-linecap:butt;stroke-linejoin:round;stroke-miterlimit:10;stroke-opacity:1;stroke-dasharray:none"
                           id="path278"
                           inkscape:connector-curvature="0" /><path
                           d="m 1698.6,6575.79 c 5.19,1.88 7.86,7.62 5.98,12.81 -1.89,5.19 -7.63,7.86 -12.82,5.98 -5.19,-1.89 -7.87,-7.63 -5.98,-12.82 1.89,-5.19 7.63,-7.86 12.82,-5.97"
                           style="fill:#000000;fill-opacity:1;fill-rule:nonzero;stroke:none"
                           id="path280"
                           inkscape:connector-curvature="0" /><path
                           d="m 1698.6,6575.79 c 5.19,1.88 7.86,7.62 5.98,12.81 -1.89,5.19 -7.63,7.86 -12.82,5.98 -5.19,-1.89 -7.87,-7.63 -5.98,-12.82 1.89,-5.19 7.63,-7.86 12.82,-5.97 z"
                           style="fill:none;stroke:#000000;stroke-width:30;stroke-linecap:butt;stroke-linejoin:round;stroke-miterlimit:10;stroke-opacity:1;stroke-dasharray:none"
                           id="path282"
                           inkscape:connector-curvature="0" /><path
                           d="m 4580.62,6585.18 c 0,47.18 -38.26,85.44 -85.44,85.44 -47.18,0 -85.44,-38.26 -85.44,-85.44 0,-47.18 38.26,-85.44 85.44,-85.44 47.18,0 85.44,38.26 85.44,85.44 z"
                           style="fill:none;stroke:#000000;stroke-width:30;stroke-linecap:butt;stroke-linejoin:round;stroke-miterlimit:10;stroke-opacity:1;stroke-dasharray:none"
                           id="path284"
                           inkscape:connector-curvature="0" /><path
                           d="m 4498.6,6585.79 c 5.19,1.88 7.86,7.62 5.98,12.81 -1.89,5.19 -7.63,7.86 -12.82,5.98 -5.19,-1.89 -7.86,-7.63 -5.97,-12.82 1.88,-5.19 7.62,-7.86 12.81,-5.97"
                           style="fill:#000000;fill-opacity:1;fill-rule:nonzero;stroke:none"
                           id="path286"
                           inkscape:connector-curvature="0" /><path
                           d="m 4498.6,6585.79 c 5.19,1.88 7.86,7.62 5.98,12.81 -1.89,5.19 -7.63,7.86 -12.82,5.98 -5.19,-1.89 -7.86,-7.63 -5.97,-12.82 1.88,-5.19 7.62,-7.86 12.81,-5.97 z"
                           style="fill:none;stroke:#000000;stroke-width:30;stroke-linecap:butt;stroke-linejoin:round;stroke-miterlimit:10;stroke-opacity:1;stroke-dasharray:none"
                           id="path288"
                           inkscape:connector-curvature="0" /><g
                           id="g290"><g
                             id="g292"
                             clip-path="url(#clipPath294)"><g
                               id="g298"
                               transform="scale(10,10)"><text
                                 transform="matrix(1,0,0,-1,280.474,475.887)"
                                 id="text300"><tspan
                                   style="font-size:18px;font-variant:normal;font-weight:bold;writing-mode:lr-tb;fill:#000000;fill-opacity:1;fill-rule:nonzero;stroke:none;font-family:Helvetica;-inkscape-font-specification:Helvetica-Bold"
                                   x="0 5.9942808 16.992561"
                                   y="0"
                                   sodipodi:role="line"
                                   id="tspan302">(b)</tspan></text>
</g></g></g><g
                           id="g304"><g
                             id="g306"
                             clip-path="url(#clipPath308)"><g
                               id="g312"
                               transform="scale(10,10)"><text
                                 transform="matrix(1,0,0,-1,280.474,241.887)"
                                 id="text314"><tspan
                                   style="font-size:18px;font-variant:normal;font-weight:bold;writing-mode:lr-tb;fill:#000000;fill-opacity:1;fill-rule:nonzero;stroke:none;font-family:Helvetica;-inkscape-font-specification:Helvetica-Bold"
                                   x="0 5.9942808 16.992561"
                                   y="0"
                                   sodipodi:role="line"
                                   id="tspan316">(d)</tspan></text>
</g></g></g><g
                           id="g318"><g
                             id="g320"
                             clip-path="url(#clipPath322)"><g
                               id="g326"
                               transform="scale(10,10)"><text
                                 transform="matrix(1,0,0,-1,280.474,7.88711)"
                                 id="text328"><tspan
                                   style="font-size:18px;font-variant:normal;font-weight:bold;writing-mode:lr-tb;fill:#000000;fill-opacity:1;fill-rule:nonzero;stroke:none;font-family:Helvetica;-inkscape-font-specification:Helvetica-Bold"
                                   x="0 5.9942498 11.9885"
                                   y="0"
                                   sodipodi:role="line"
                                   id="tspan330">(f)</tspan></text>
</g></g></g><g
                           id="g332"><g
                             id="g334"
                             clip-path="url(#clipPath336)"><g
                               id="g340"
                               transform="scale(10,10)"><text
                                 transform="matrix(1,0,0,-1,28.4742,7.88711)"
                                 id="text342"><tspan
                                   style="font-size:18px;font-variant:normal;font-weight:bold;writing-mode:lr-tb;fill:#000000;fill-opacity:1;fill-rule:nonzero;stroke:none;font-family:Helvetica;-inkscape-font-specification:Helvetica-Bold"
                                   x="0 5.9942293 16.002459"
                                   y="0"
                                   sodipodi:role="line"
                                   id="tspan344">(e)</tspan></text>
</g></g></g><g
                           id="g346"><g
                             id="g348"
                             clip-path="url(#clipPath350)"><g
                               id="g354"
                               transform="scale(10,10)"><text
                                 transform="matrix(1,0,0,-1,28.4742,241.887)"
                                 id="text356"><tspan
                                   style="font-size:18px;font-variant:normal;font-weight:bold;writing-mode:lr-tb;fill:#000000;fill-opacity:1;fill-rule:nonzero;stroke:none;font-family:Helvetica;-inkscape-font-specification:Helvetica-Bold"
                                   x="0 5.9942293 16.002459"
                                   y="0"
                                   sodipodi:role="line"
                                   id="tspan358">(c)</tspan></text>
</g></g></g><g
                           id="g360"><g
                             id="g362"
                             clip-path="url(#clipPath364)"><g
                               id="g368"
                               transform="scale(10,10)"><text
                                 transform="matrix(1,0,0,-1,28.4742,475.887)"
                                 id="text370"><tspan
                                   style="font-size:18px;font-variant:normal;font-weight:bold;writing-mode:lr-tb;fill:#000000;fill-opacity:1;fill-rule:nonzero;stroke:none;font-family:Helvetica;-inkscape-font-specification:Helvetica-Bold"
                                   x="0 5.9942293 16.002459"
                                   y="0"
                                   sodipodi:role="line"
                                   id="tspan372">(a)</tspan></text>
</g></g></g><g
                           id="g374"><g
                             id="g376"
                             clip-path="url(#clipPath378)"><g
                               id="g382"
                               transform="scale(10,10)"><text
                                 transform="matrix(1,0,0,-1,0.474219,696.477)"
                                 id="text384"><tspan
                                   style="font-size:32px;font-variant:normal;font-weight:bold;writing-mode:lr-tb;fill:#ff0000;fill-opacity:1;fill-rule:nonzero;stroke:none;font-family:Helvetica;-inkscape-font-specification:Helvetica-Bold"
                                   x="0 24.896206 37.34441 55.136616 72.928825 81.825027 92.481232 110.27344 120.92964 129.82585 149.37805 168.93027 186.72247 195.61867 214.30688 244.51509 262.30728 280.09949 297.89169 306.784 328.12817 347.68036 356.57654 374.36871 386.81689 395.7131 411.71329 429.50546 440.16165 449.05783 468.60999"
                                   y="0"
                                   sodipodi:role="line"
                                   id="tspan386">Gravitational−Wave Polarization</tspan></text>
</g></g></g></g></g></g></g></g><g
                 id="g388"
                 transform="translate(-89.849,-21.917)" /></g></g></g></g></g></g></svg>